# xmcd
# Copyright (C) 1995-1998 Ti Kan
#
# Track frame offsets:
#       150
#       13357
#       28127
#       41791
#       54167
#       67712
#       82256
#       94951
#       114823
#       126537
#
# Disc length: 1882 seconds
#
# Revision: 0
# Processed by: cddbd v1.5.2PL0 Copyright (c) Steve Scherf et al.
# Submitted via: CD-Transfer v1.0
#
DISCID=8607580a
DTITLE=TRIO ALPIN (NEU) - 
DYEAR=1900
DGENRE=
TTITLE0=ONLY YOU
TTITLE1=EWIG LEBT DIE HOFFNUNG
TTITLE2=WENN DIE SEHNSUCHT NICHT WÄR
TTITLE3=TI AMO
TTITLE4=FLIEG, FLAMINGO FLIEG
TTITLE5=LIEBE LEBT (CORAZON)
TTITLE6=ADDIO DER LIEBE
TTITLE7=DU BIST WIE DIE STERNE SO SCHÖN
TTITLE8=KINDERAUGEN
TTITLE9=SUMMAWIND
EXTD=
EXTT0=
EXTT1=
EXTT2=
EXTT3=
EXTT4=
EXTT5=
EXTT6=
EXTT7=
EXTT8=
EXTT9=
PLAYORDER=
